<?xml version="1.0" encoding="utf-8"?>
<!-- Generator: Adobe Illustrator 28.0.0, SVG Export Plug-In . SVG Version: 6.00 Build 0)  -->
<svg version="1.1" id="LOGO" xmlns="http://www.w3.org/2000/svg" xmlns:xlink="http://www.w3.org/1999/xlink" x="0px" y="0px"
	 viewBox="0 0 805.9 293.5" style="enable-background:new 0 0 805.9 293.5;" xml:space="preserve">
<style type="text/css">
	.st0{fill:#FFFFFF;}
</style>
<g>
	<g>
		<g>
			<rect x="91.3" y="108.6" class="st0" width="28.6" height="28.6"/>
			<rect x="133.1" y="108.6" class="st0" width="28.6" height="28.6"/>
			<rect x="133.1" y="147.8" class="st0" width="28.6" height="28.6"/>
			<rect x="91.3" y="147.8" class="st0" width="28.6" height="28.6"/>
		</g>
		<g>
			<polygon class="st0" points="269.4,117.9 240.7,134.8 240.7,192.1 240.7,207.7 240.7,208.6 212.1,225.5 212.1,207.7 212.1,192.1 
				212.1,85.3 139.6,43.8 168.5,25.2 240.5,67.8 240.7,67.8 240.7,68 269.1,84.7 			"/>
			<path class="st0" d="M2,36.5c-0.2,11-0.4,22-0.6,32.9l-0.1,0.1l0.1,0.2L0,153.4l30.4,16l0.3-83.5l92.9-52.8l13.6-7.7l15.5-8.8
				L123.7,0l-0.8,0.4l-13.6,7.7C92.8,17.6,76.2,27,59.6,36.5C40.4,36.5,21.2,36.5,2,36.5z"/>
			<polygon class="st0" points="93.8,293.5 122.4,277.2 122.6,277.3 122.7,277.1 195.4,235.8 193.7,201.5 121.7,243.8 29,190.7 
				15.4,182.9 0,174.1 0.4,207.3 1.2,207.8 14.8,215.5 64.5,244 64.9,277.3 			"/>
		</g>
	</g>
	<g>
		<rect x="494" y="106.8" class="st0" width="114.1" height="75.8"/>
		<path class="st0" d="M298.4,168v-50.4h9.6l21.5,35.6h-5.1l21-35.6h9.7V168h-10.9l-0.1-33.6h2.2l-17,28.2h-5.2l-17.2-28.2h2.4V168
			H298.4z"/>
		<path class="st0" d="M378.2,168.6c-3,0-5.5-0.5-7.7-1.5c-2.2-1-3.8-2.4-5-4.2c-1.2-1.8-1.8-3.8-1.8-6c0-2.3,0.6-4.3,1.7-6
			c1.1-1.8,2.9-3.1,5.4-4.1c2.4-1,5.7-1.4,9.6-1.4h10.2v6.5h-9.1c-2.6,0-4.5,0.4-5.4,1.3c-1,0.9-1.5,1.9-1.5,3.2
			c0,1.4,0.6,2.6,1.7,3.4c1.1,0.8,2.7,1.3,4.6,1.3c1.9,0,3.6-0.4,5.1-1.3c1.5-0.9,2.6-2.2,3.2-4l1.7,5.3c-0.8,2.4-2.3,4.3-4.5,5.6
			C384.4,167.9,381.6,168.6,378.2,168.6z M390,168v-7.6l-0.7-1.7v-13.5c0-2.4-0.7-4.3-2.2-5.6c-1.5-1.3-3.7-2-6.7-2
			c-2.1,0-4.1,0.3-6.1,1c-2,0.6-3.7,1.5-5.1,2.6l-4-7.8c2.1-1.5,4.7-2.7,7.6-3.5c3-0.8,6-1.2,9.1-1.2c5.9,0,10.5,1.4,13.8,4.2
			c3.3,2.8,4.9,7.1,4.9,13V168H390z"/>
		<path class="st0" d="M427.3,168.6c-3.6,0-6.9-0.8-9.9-2.5c-2.9-1.7-5.2-4-6.9-6.9c-1.7-3-2.5-6.5-2.5-10.5c0-4,0.8-7.5,2.5-10.5
			c1.7-3,4-5.3,6.9-6.9c2.9-1.7,6.2-2.5,9.9-2.5c3.3,0,6.1,0.7,8.6,2.2s4.3,3.6,5.7,6.6c1.3,2.9,2,6.7,2,11.2
			c0,4.5-0.6,8.3-1.9,11.2c-1.3,3-3.2,5.2-5.6,6.6C433.7,167.9,430.7,168.6,427.3,168.6z M429.2,159.4c1.9,0,3.6-0.4,5-1.3
			c1.5-0.8,2.7-2.1,3.6-3.7c0.9-1.6,1.3-3.6,1.3-5.8c0-2.3-0.4-4.2-1.3-5.8c-0.9-1.6-2.1-2.8-3.6-3.6c-1.5-0.8-3.2-1.3-5-1.3
			c-1.8,0-3.5,0.4-5,1.3c-1.5,0.8-2.7,2.1-3.6,3.6c-0.9,1.6-1.3,3.5-1.3,5.8c0,2.2,0.4,4.1,1.3,5.8c0.9,1.6,2.1,2.9,3.6,3.7
			C425.7,159,427.4,159.4,429.2,159.4z M439.4,168v-7.9l0.2-11.5l-0.7-11.4v-22.5h11.2V168H439.4z"/>
		<path class="st0" d="M473.6,168.6c-3.3,0-6.5-0.4-9.5-1.2c-3-0.8-5.4-1.8-7.3-3l3.7-8c1.8,1.1,3.9,1.9,6.4,2.6
			c2.4,0.7,4.8,1,7.2,1c2.6,0,4.4-0.3,5.5-0.9c1.1-0.6,1.6-1.5,1.6-2.6c0-0.9-0.4-1.6-1.3-2.1c-0.8-0.5-1.9-0.8-3.3-1
			c-1.4-0.2-2.9-0.5-4.6-0.7c-1.7-0.2-3.3-0.6-5-1s-3.2-1-4.6-1.8s-2.5-1.9-3.4-3.3c-0.8-1.4-1.3-3.2-1.3-5.4c0-2.4,0.7-4.6,2.2-6.5
			c1.4-1.9,3.5-3.4,6.1-4.4c2.6-1.1,5.8-1.6,9.6-1.6c2.7,0,5.4,0.3,8.1,0.9c2.7,0.6,5,1.4,6.9,2.5l-3.8,8c-1.8-1.1-3.7-1.8-5.6-2.2
			s-3.7-0.6-5.4-0.6c-2.6,0-4.5,0.3-5.6,1c-1.2,0.7-1.7,1.5-1.7,2.6c0,1,0.4,1.7,1.3,2.2s2,0.9,3.4,1.1c1.4,0.2,2.9,0.5,4.6,0.7
			c1.7,0.2,3.3,0.6,5,1c1.6,0.4,3.2,1,4.6,1.8c1.4,0.8,2.5,1.9,3.4,3.3c0.8,1.4,1.3,3.2,1.3,5.4c0,2.4-0.7,4.5-2.2,6.3
			c-1.4,1.8-3.5,3.3-6.2,4.4C480.7,168.1,477.4,168.6,473.6,168.6z"/>
		<g>
			<path d="M516.6,158.3H544v9.4h-39v-50.4h38.1v9.4h-26.5V158.3z M515.7,137.5H540v9.1h-24.3V137.5z"/>
			<path d="M552.5,168v-50.4h21.8c4.5,0,8.4,0.7,11.7,2.2c3.3,1.5,5.8,3.6,7.6,6.3c1.8,2.7,2.7,6,2.7,9.7c0,3.8-0.9,7-2.7,9.8
				c-1.8,2.7-4.3,4.8-7.6,6.2c-3.3,1.4-7.2,2.1-11.7,2.1h-15.4l5.3-5V168H552.5z M564.2,150.2l-5.3-5.5h14.8c3.6,0,6.2-0.8,8.1-2.3
				c1.8-1.5,2.7-3.7,2.7-6.5c0-2.8-0.9-4.9-2.7-6.4c-1.8-1.5-4.5-2.3-8.1-2.3h-14.8l5.3-5.5V150.2z M584.6,168l-12.7-18.3h12.5
				l12.7,18.3H584.6z"/>
		</g>
		<path class="st0" d="M621.2,168v-50.4h24.6c6.3,0,11.1,1.2,14.3,3.6c3.2,2.4,4.8,5.6,4.8,9.5c0,2.6-0.6,4.9-1.9,6.9
			s-3.1,3.4-5.4,4.5c-2.3,1.1-4.9,1.6-7.7,1.6l1.4-3c3.2,0,6,0.5,8.4,1.6c2.4,1.1,4.3,2.6,5.7,4.6c1.4,2,2.1,4.5,2.1,7.4
			c0,4.3-1.7,7.7-5.1,10.1c-3.4,2.4-8.4,3.6-15,3.6H621.2z M632.7,159.2h13.7c3,0,5.3-0.5,6.8-1.5c1.6-1,2.4-2.6,2.4-4.7
			c0-2.2-0.8-3.7-2.4-4.8s-3.9-1.5-6.8-1.5h-14.5v-8.5h12.5c2.8,0,5-0.5,6.5-1.5c1.5-1,2.3-2.5,2.3-4.5s-0.8-3.5-2.3-4.5
			c-1.5-1-3.7-1.4-6.5-1.4h-11.6V159.2z"/>
		<path class="st0" d="M693.8,168.6c-4.1,0-7.7-0.9-10.9-2.6c-3.2-1.7-5.7-4.1-7.5-7.1c-1.8-3-2.7-6.4-2.7-10.3
			c0-3.9,0.9-7.3,2.7-10.3c1.8-3,4.3-5.4,7.5-7.1c3.2-1.7,6.8-2.6,10.9-2.6c4.1,0,7.8,0.9,11,2.6c3.2,1.7,5.7,4.1,7.6,7.1
			c1.8,3,2.7,6.4,2.7,10.3c0,3.9-0.9,7.3-2.7,10.3c-1.8,3-4.3,5.3-7.6,7.1S697.9,168.6,693.8,168.6z M693.8,159.4
			c1.9,0,3.6-0.4,5.1-1.3c1.5-0.8,2.6-2.1,3.5-3.7c0.9-1.6,1.3-3.6,1.3-5.8c0-2.3-0.4-4.2-1.3-5.8c-0.9-1.6-2.1-2.8-3.5-3.6
			c-1.5-0.8-3.1-1.3-5-1.3s-3.6,0.4-5,1.3c-1.5,0.8-2.7,2.1-3.6,3.6c-0.9,1.6-1.3,3.5-1.3,5.8c0,2.2,0.4,4.1,1.3,5.8
			c0.9,1.6,2.1,2.9,3.6,3.7C690.3,159,692,159.4,693.8,159.4z"/>
		<path class="st0" d="M722.6,168v-53.4h11.2V168H722.6z"/>
		<path class="st0" d="M749.9,123.9c-2.1,0-3.8-0.6-5.1-1.8c-1.3-1.2-1.9-2.7-1.9-4.5c0-1.8,0.6-3.3,1.9-4.5c1.3-1.2,3-1.8,5.1-1.8
			c2.1,0,3.8,0.6,5.1,1.7c1.3,1.1,2,2.6,2,4.4c0,1.9-0.6,3.4-1.9,4.6C753.7,123.3,752,123.9,749.9,123.9z M744.3,168v-38.7h11.2V168
			H744.3z"/>
		<path class="st0" d="M782.4,166.2c-3.5,0-6.7-0.8-9.6-2.3c-2.9-1.6-5.3-3.7-7-6.6c-1.7-2.8-2.6-6.1-2.6-9.8c0-3.8,0.9-7.1,2.6-9.9
			c1.7-2.8,4.1-5,7-6.5c2.9-1.5,6.1-2.3,9.6-2.3c3.4,0,6.3,0.7,8.7,2c2.5,1.3,4.4,3.4,5.8,6.2c1.4,2.8,2.1,6.3,2.1,10.6
			c0,4.3-0.7,7.8-2.1,10.5c-1.4,2.8-3.3,4.8-5.8,6.2C788.6,165.5,785.7,166.2,782.4,166.2z M784.2,182.6c-3.6,0-7.2-0.4-10.5-1.3
			c-3.4-0.9-6.2-2.2-8.5-4l4.5-8.1c1.7,1.4,3.8,2.5,6.2,3.3c2.5,0.8,5,1.2,7.5,1.2c3.9,0,6.8-0.9,8.6-2.7c1.8-1.8,2.7-4.4,2.7-7.9
			v-5.8l0.7-9.8l-0.2-9.9v-8.3h10.7v32.3c0,7.2-1.9,12.4-5.6,15.9C796.5,180.9,791.2,182.6,784.2,182.6z M784.7,157
			c2,0,3.7-0.4,5.3-1.2c1.5-0.8,2.7-1.9,3.6-3.4c0.9-1.4,1.3-3.1,1.3-5c0-1.9-0.4-3.6-1.3-5c-0.9-1.4-2.1-2.5-3.6-3.3
			c-1.5-0.8-3.3-1.2-5.3-1.2c-1.9,0-3.7,0.4-5.2,1.2c-1.6,0.8-2.8,1.9-3.7,3.3c-0.9,1.4-1.3,3.1-1.3,5c0,1.9,0.4,3.5,1.3,5
			c0.9,1.4,2.1,2.6,3.7,3.4C781,156.6,782.7,157,784.7,157z"/>
	</g>
</g>
</svg>
