<svg width="110" height="108" viewBox="0 0 110 108" fill="none" xmlns="http://www.w3.org/2000/svg">
<path d="M55 0.647949C24.673 0.647949 0 24.5314 0 53.888V75.9453C0 81.3971 4.9335 85.832 11 85.832H16.5C17.9587 85.832 19.3576 85.2711 20.3891 84.2726C21.4205 83.2742 22 81.92 22 80.508V53.1266C22 51.7146 21.4205 50.3604 20.3891 49.362C19.3576 48.3636 17.9587 47.8026 16.5 47.8026H11.506C14.564 27.1988 32.879 11.296 55 11.296C77.121 11.296 95.436 27.1988 98.494 47.8026H93.5C92.0413 47.8026 90.6424 48.3636 89.6109 49.362C88.5795 50.3604 88 51.7146 88 53.1266V85.832C88 91.7044 83.0665 96.48 77 96.48H66V91.156H44V107.128H77C89.133 107.128 99 97.5767 99 85.832C105.067 85.832 110 81.3971 110 75.9453V53.888C110 24.5314 85.327 0.647949 55 0.647949Z" fill="#9F9F9F"/>
</svg>
