<svg width="120" height="103" viewBox="0 0 120 103" fill="none" xmlns="http://www.w3.org/2000/svg">
<path d="M19.0465 38.0621L19.0227 38.0819C18.3203 38.7772 17.7634 39.6054 17.3846 40.5182C17.0057 41.431 16.8125 42.4102 16.8162 43.3985C16.8199 44.3868 17.0204 45.3644 17.4061 46.2744C17.7917 47.1843 18.3548 48.0084 19.0624 48.6983C20.2634 49.8612 21.8134 50.5968 23.4736 50.7918C25.1339 50.9869 26.8122 50.6306 28.25 49.7778V61.1999C31.56 62.3112 34.3659 64.5178 36.1875 67.4229V48.5793C36.1875 46.3568 38.0132 44.5312 40.2357 44.5312H55.9519C58.1744 44.5312 60 46.3568 60 48.5793V76.3843C59.6176 76.3153 59.2298 76.2807 58.8412 76.2812H43.8869L43.9663 76.7177C44.0179 76.9479 44.0576 77.194 44.0695 77.4559L44.1012 77.7337C44.125 78.0234 44.125 78.2893 44.125 78.3925V78.4124C44.125 79.0394 44.0695 79.6546 43.9663 80.2499H76.0338C75.9279 79.6431 75.8748 79.0283 75.875 78.4124V78.3925C75.875 78.2933 75.875 78.0234 75.8988 77.7377L75.9306 77.4559C75.9413 77.2071 75.9759 76.9599 76.0338 76.7177C76.6886 72.6736 79.6136 69.4152 83.3918 68.1373C84.6294 65.9172 86.4088 64.0466 88.5642 62.6996C90.7196 61.3526 93.1809 60.5732 95.7188 60.4339V49.8056C96.6197 50.3057 97.6 50.5994 98.5961 50.7026C99.1557 50.2263 99.7868 49.8255 100.473 49.5119C101.871 47.2041 104.113 45.5324 106.724 44.8526C107.011 43.6291 106.975 42.3521 106.62 41.1465C106.265 39.941 105.604 38.8481 104.7 37.9748L104.684 37.9629L71.9301 5.69693C71.9795 5.45569 72.1108 5.23895 72.3018 5.08344C72.4927 4.92793 72.7316 4.84322 72.9778 4.84365H78.6928C79.2485 4.84365 79.7247 5.3199 79.7247 5.91521V10.0586L88.3091 1.60118C88.3091 1.5615 88.3488 1.56149 88.3488 1.56149C88.8006 1.12267 89.4057 0.877197 90.0355 0.877197C90.6654 0.877197 91.2704 1.12267 91.7223 1.56149L116.686 26.1677C117.599 27.0806 117.678 28.5887 116.725 29.5015C116.274 29.9403 115.669 30.1858 115.039 30.1858C114.409 30.1858 113.804 29.9403 113.352 29.5015L111.526 27.6997V44.7772C113.38 45.1936 115.083 46.1137 116.448 47.4363L116.475 47.4641L116.499 47.4879C117.846 48.8315 118.795 50.521 119.241 52.3699C119.688 54.2188 119.615 56.1552 119.031 57.9654L119.023 58.0011L119.011 58.0368C118.662 59.0846 118.154 60.0609 117.507 60.93V92.1562C117.507 94.7876 116.462 97.3113 114.601 99.172C112.74 101.033 110.217 102.078 107.585 102.078H12.375C9.74359 102.078 7.21992 101.033 5.35921 99.172C3.49849 97.3113 2.45316 94.7876 2.45316 92.1562V60.8745C1.82099 60.0101 1.32694 59.0528 0.988688 58.0368L0.976781 58.0011L0.968844 57.9654C0.384602 56.1552 0.311876 54.2188 0.758695 52.3699C1.20551 50.521 2.1545 48.8315 3.50091 47.4879L3.52472 47.4601L3.54853 47.4363C4.89748 46.1301 6.57691 45.2163 8.40628 44.7931V27.7116L6.50922 29.5769C6.0574 30.0157 5.45235 30.2612 4.8225 30.2612C4.19265 30.2612 3.5876 30.0157 3.13578 29.5769C2.69758 29.1328 2.45189 28.5339 2.45189 27.91C2.45189 27.2861 2.69758 26.6873 3.13578 26.2432L12.375 17.1388V5.91521C12.375 5.3199 12.8513 4.84365 13.4466 4.84365H19.1616C19.7172 4.84365 20.1935 5.3199 20.1935 5.91521V9.43153L28.1429 1.60118C28.1429 1.5615 28.1826 1.56149 28.1826 1.56149C28.6344 1.12267 29.2394 0.877197 29.8693 0.877197C30.4991 0.877197 31.1042 1.12267 31.556 1.56149L43.8353 13.6662L19.0465 38.0621ZM8.40628 48.9365C7.62424 49.2451 6.91079 49.705 6.30681 50.2898C5.60492 50.9875 5.07627 51.8399 4.76325 52.7787C4.45023 53.7176 4.36154 54.7167 4.50431 55.696C4.64707 56.6753 5.01731 57.6075 5.58534 58.4179C6.15337 59.2282 6.90339 59.8943 7.77525 60.3625V60.4062H18.4472C19.5585 59.6521 20.3165 58.3742 20.3165 56.9414C20.3165 56.7827 20.3165 56.6636 20.2768 56.5446V56.4255C20.1869 55.6381 19.8728 54.893 19.3719 54.2788C18.871 53.6646 18.2043 53.2072 17.4511 52.9608C17.2258 52.898 17.0169 52.787 16.8388 52.6356C16.6606 52.4842 16.5175 52.2959 16.4192 52.0837C15.7237 50.6479 14.5129 49.5268 13.028 48.9436C11.5431 48.3604 9.89298 48.3578 8.40628 48.9365ZM114.277 50.9605C114.098 50.7238 113.903 50.4997 113.693 50.2898C112.507 49.1458 110.924 48.5045 109.276 48.4999C106.772 48.4999 104.621 49.9723 103.589 52.0837C103.39 52.5202 102.993 52.8377 102.553 52.9568C101.799 53.2039 101.133 53.6621 100.632 54.277C100.131 54.8918 99.8169 55.6375 99.7272 56.4255V56.5446C99.6875 56.6636 99.6875 56.7827 99.6875 56.9414C99.6875 58.3742 100.442 59.6481 101.557 60.4062H112.221V60.3665C113.274 59.8099 114.147 58.9649 114.737 57.9303C115.328 56.8957 115.611 55.7143 115.555 54.5245C115.502 53.234 115.056 51.9906 114.277 50.9605ZM95.7188 64.4146C93.8324 64.5538 92.0131 65.174 90.4345 66.2162C88.856 67.2584 87.5709 68.6877 86.7018 70.3677C86.5177 70.7314 86.257 71.0509 85.9378 71.3044C85.6186 71.5579 85.2483 71.7393 84.8523 71.8362C83.5692 72.2215 82.4229 72.9658 81.5489 73.9812C80.6748 74.9966 80.1093 76.2408 79.9192 77.567C79.8795 77.6424 79.8795 77.7139 79.9192 77.7496C79.8438 77.9361 79.8438 78.1901 79.8438 78.4124C79.8438 79.0474 79.9351 79.6625 80.1018 80.2499C80.574 81.9049 81.6694 83.3217 83.118 84.2187H101.807C103.035 83.6191 104.131 82.7802 105.031 81.751C105.931 80.7219 106.616 79.5234 107.046 78.2258C107.435 77.1551 107.632 76.0236 107.625 74.8842C107.625 71.983 106.395 69.3001 104.351 67.3872C103.195 66.3226 101.832 65.5088 100.346 64.9972C98.8604 64.4856 97.2849 64.2872 95.7188 64.4146ZM39.8983 80.2499C40.065 79.6625 40.1563 79.0474 40.1563 78.4124C40.1563 78.1941 40.1563 77.9361 40.0769 77.7496C40.1166 77.7139 40.1166 77.6424 40.0769 77.567C40.0207 77.1296 39.921 76.6988 39.7792 76.2812C39.4134 75.227 38.803 74.2745 37.9979 73.5018C37.1928 72.7292 36.216 72.1584 35.1477 71.8362C34.7517 71.7395 34.3813 71.5582 34.062 71.3047C33.7427 71.0512 33.4822 70.7316 33.2983 70.3677C32.2013 68.2234 30.4266 66.5017 28.25 65.4703C26.1988 64.4945 23.9023 64.1552 21.6565 64.4961C19.4108 64.8371 17.3185 65.8426 15.6492 67.3832C14.617 68.3428 13.7935 69.5048 13.2302 70.7967C12.6668 72.0886 12.3757 73.4827 12.375 74.8921C12.375 76.0629 12.5695 77.1662 12.9545 78.2338C13.3845 79.5308 14.0694 80.7287 14.9691 81.7572C15.8687 82.7857 16.9649 83.6239 18.1932 84.2226H36.8821C38.3307 83.3257 39.426 81.9049 39.8983 80.2499ZM55.555 62.1524C55.555 61.6893 55.3711 61.2451 55.0436 60.9176C54.7161 60.5901 54.2719 60.4062 53.8088 60.4062C53.3456 60.4062 52.9015 60.5901 52.574 60.9176C52.2465 61.2451 52.0625 61.6893 52.0625 62.1524C52.0625 62.6155 52.2465 63.0597 52.574 63.3872C52.9015 63.7147 53.3456 63.8987 53.8088 63.8987C54.2719 63.8987 54.7161 63.7147 55.0436 63.3872C55.3711 63.0597 55.555 62.6155 55.555 62.1524Z" fill="#606060"/>
<path d="M21.8326 40.8878C20.4435 42.2769 20.4435 44.4994 21.8326 45.8487C23.2216 47.1981 25.4838 47.2378 26.8729 45.8487L61.9169 11.3206L96.8419 45.7297C97.5113 46.3961 98.4175 46.7703 99.3621 46.7703C100.307 46.7703 101.213 46.3961 101.882 45.7297C103.271 44.3406 103.311 42.1578 101.922 40.8084L64.4569 3.89905C63.7875 3.23257 62.8814 2.8584 61.9368 2.8584C60.9922 2.8584 60.086 3.23257 59.4166 3.89905C59.4166 3.89905 59.3769 3.89905 59.3769 3.93873L21.8326 40.8878Z" fill="#606060"/>
<path d="M81.5464 60.4061H70.1997C69.5987 60.4061 69.0223 60.1673 68.5973 59.7423C68.1723 59.3173 67.9336 58.7409 67.9336 58.1399V46.7933C67.9336 45.5233 68.9655 44.5271 70.1997 44.5271H81.5424C82.8124 44.5271 83.8086 45.559 83.8086 46.7933V58.1359C83.8086 59.4059 82.8164 60.4021 81.5424 60.4021L81.5464 60.4061Z" fill="#606060"/>
</svg>
